<svg xmlns="http://www.w3.org/2000/svg" xmlns:xlink="http://www.w3.org/1999/xlink" id="Capa_1" x="0" y="0" version="1.1" viewBox="0 0 512.001 512.001" xml:space="preserve" style="enable-background:new 0 0 512.001 512.001"><path style="fill:#c2cece" d="M374.995,512H6.009c-2.337,0-4.233-1.894-4.233-4.233v-5.412c0-5.327,4.318-9.645,9.645-9.645	h363.572c5.327,0,9.645,4.318,9.645,9.645l0,0C384.639,507.681,380.32,512,374.995,512z"/><linearGradient id="SVGID_1_" x1="122.939" x2="-31.151" y1="31.669" y2="185.759" gradientTransform="matrix(1.0667 0 0 -1.0667 3.2666 557.5336)" gradientUnits="userSpaceOnUse"><stop offset="0" style="stop-color:#ffcf95"/><stop offset=".054" style="stop-color:#fed19a"/><stop offset="1" style="stop-color:#e8efee"/></linearGradient><path style="fill:url(#SVGID_1_)" d="M120.736,391.264L70.42,340.947l-16.864,16.864c-5.104,5.104-8.941,11.334-11.2,18.19	L0.337,503.464c-1.669,5.062,3.137,9.869,8.199,8.199l127.462-42.018c6.855-2.26,13.086-6.096,18.19-11.2l16.864-16.864	L120.736,391.264z"/><linearGradient id="SVGID_2_" x1="75.672" x2="83.672" y1="82.269" y2="59.869" gradientTransform="matrix(1.0667 0 0 -1.0667 3.2666 557.5336)" gradientUnits="userSpaceOnUse"><stop offset="0" style="stop-color:#c69c6d;stop-opacity:0"/><stop offset="1" style="stop-color:#754c24"/></linearGradient><path style="fill:url(#SVGID_2_)" d="M154.189,435.721c-5.104,5.104-11.334,8.941-18.19,11.2L8.537,488.939	c-1.199,0.395-2.38,0.417-3.467,0.17l-4.733,14.355c-1.669,5.062,3.137,9.869,8.199,8.199l127.462-42.018	c6.855-2.26,13.086-6.096,18.19-11.2l16.864-16.864l-11.362-11.362L154.189,435.721z"/><linearGradient id="SVGID_3_" x1="286.577" x2="203.087" y1="208.287" y2="291.777" gradientTransform="matrix(1.0667 0 0 -1.0667 3.2666 557.5336)" gradientUnits="userSpaceOnUse"><stop offset="0" style="stop-color:#ff9102"/><stop offset="1" style="stop-color:#ffc200"/></linearGradient><path style="fill:url(#SVGID_3_)" d="M150.963,461.671c4.562-4.562,6.844-10.55,6.844-16.539c0-5.963-2.282-11.951-6.844-16.513	l-0.493-0.493c-5.495-5.495-13.039-7.674-20.169-6.559c-1.854,0.299-3.578-0.363-4.77-1.555c-1.193-1.193-1.841-2.903-1.555-4.743	c-0.013-0.013,0-0.026,0-0.026c0.078-0.466,0.129-0.933,0.181-1.4c0.013-0.246,0.038-0.48,0.052-0.725	c0.038-0.506,0.052-1.011,0.052-1.53c0-5.963-2.282-11.951-6.844-16.513l-0.493-0.493c-0.285-0.285-0.583-0.557-0.881-0.83	c-0.246-0.221-0.506-0.453-0.765-0.661c-0.402-0.35-0.817-0.661-1.245-0.959c-0.221-0.169-0.466-0.337-0.7-0.493	c-0.337-0.234-0.7-0.466-1.062-0.674c-0.35-0.194-0.687-0.375-1.024-0.557c-0.453-0.246-0.908-0.466-1.361-0.661	c-0.375-0.169-0.765-0.324-1.14-0.467c-0.35-0.143-0.713-0.272-1.089-0.388c-0.921-0.299-1.867-0.544-2.826-0.725	c-0.453-0.091-0.894-0.169-1.335-0.221c-0.453-0.065-0.908-0.103-1.348-0.129c-0.453-0.038-0.894-0.065-1.361-0.065	c-0.453-0.013-0.894-0.013-1.335,0.013c-0.921,0.038-1.802,0.116-2.697,0.259c-1.854,0.299-3.578-0.363-4.77-1.555	c-1.193-1.193-1.854-2.916-1.555-4.77c0.194-1.205,0.285-2.436,0.285-3.655c0-5.963-2.282-11.951-6.844-16.513l-0.493-0.493	c-9.125-9.125-23.927-9.125-33.052,0L334.625,76.738l100.634,100.634L150.963,461.671z"/><linearGradient id="SVGID_4_" x1="212.036" x2="243.826" y1="290.436" y2="258.646" gradientTransform="matrix(1.0667 0 0 -1.0667 3.2666 557.5336)" gradientUnits="userSpaceOnUse"><stop offset="0" style="stop-color:#ffcf95"/><stop offset=".427" style="stop-color:#ffc954"/><stop offset="1" style="stop-color:#ffc200"/></linearGradient><path style="fill:url(#SVGID_4_)" d="M401.717,143.828L125.532,420.013c-1.193-1.193-1.841-2.903-1.555-4.743	c-0.013-0.013,0-0.026,0-0.026c0.078-0.466,0.129-0.933,0.181-1.399c0.013-0.246,0.038-0.48,0.052-0.725	c0.038-0.506,0.052-1.011,0.052-1.53c0-5.963-2.282-11.951-6.844-16.513l-0.493-0.493c-0.285-0.285-0.583-0.557-0.881-0.83	c-0.246-0.221-0.506-0.453-0.765-0.661c-0.402-0.35-0.817-0.661-1.245-0.959c-0.234-0.181-0.466-0.337-0.7-0.493	c-0.337-0.234-0.7-0.466-1.062-0.674c-0.337-0.181-0.674-0.389-1.024-0.557c-0.453-0.246-0.908-0.466-1.361-0.661	c-0.375-0.169-0.765-0.324-1.14-0.467c-0.35-0.143-0.713-0.272-1.089-0.388c-0.921-0.299-1.867-0.544-2.826-0.725	c-0.428-0.091-0.881-0.156-1.335-0.221c-0.441-0.052-0.881-0.103-1.348-0.129c-0.441-0.052-0.894-0.065-1.361-0.065	c-0.453-0.013-0.908,0-1.335,0.013c-0.921,0.038-1.802,0.116-2.697,0.259c-1.854,0.299-3.578-0.363-4.77-1.555l276.185-276.185	L401.717,143.828z"/><linearGradient id="SVGID_5_" x1="187.898" x2="208.518" y1="306.968" y2="286.348" gradientTransform="matrix(1.0667 0 0 -1.0667 3.2666 557.5336)" gradientUnits="userSpaceOnUse"><stop offset="0" style="stop-color:#ffcf95"/><stop offset=".427" style="stop-color:#ffc954"/><stop offset="1" style="stop-color:#ffc200"/></linearGradient><path style="fill:url(#SVGID_5_)" d="M334.628,76.739L50.329,361.038c9.125-9.125,23.927-9.125,33.052,0l0.493,0.493	c4.562,4.562,6.844,10.55,6.844,16.513c0,1.218-0.091,2.45-0.285,3.655c-0.298,1.854,0.363,3.578,1.555,4.77l276.185-276.185	L334.628,76.739z"/><linearGradient id="SVGID_6_" x1="432.344" x2="397.404" y1="478.1" y2="443.152" gradientTransform="matrix(1.0667 0 0 -1.0667 3.2666 557.5336)" gradientUnits="userSpaceOnUse"><stop offset="0" style="stop-color:#d63305"/><stop offset=".366" style="stop-color:#cf3004"/><stop offset=".899" style="stop-color:#bc2602"/><stop offset="1" style="stop-color:#b72401"/></linearGradient><path style="fill:url(#SVGID_6_)" d="M469.671,142.965L369.035,42.33l31.523-31.523c14.409-14.409,37.769-14.409,52.177,0	l48.459,48.459c14.409,14.409,14.409,37.769,0,52.177L469.671,142.965z"/><linearGradient id="SVGID_7_" x1="462.63" x2="444.26" y1="417.3" y2="435.66" gradientTransform="matrix(1.0667 0 0 -1.0667 3.2666 557.5336)" gradientUnits="userSpaceOnUse"><stop offset="0" style="stop-color:#960000"/><stop offset=".331" style="stop-color:#9c0700;stop-opacity:.669"/><stop offset=".812" style="stop-color:#ae1a01;stop-opacity:.188"/><stop offset="1" style="stop-color:#b72401;stop-opacity:0"/></linearGradient><path style="fill:url(#SVGID_7_)" d="M436.309,109.603l33.362,33.362l31.524-31.524c14.407-14.407,14.407-37.767,0-52.176	l-7.275-7.275L436.309,109.603z"/><linearGradient id="SVGID_8_" x1="393.86" x2="381.1" y1="439.596" y2="426.846" gradientTransform="matrix(1.0667 0 0 -1.0667 3.2666 557.5336)" gradientUnits="userSpaceOnUse"><stop offset="0" style="stop-color:#fff"/><stop offset="1" style="stop-color:#e8efee"/></linearGradient><polygon style="fill:url(#SVGID_8_)" points="474.17 138.466 373.534 37.831 334.621 76.744 435.257 177.379"/><linearGradient id="SVGID_9_" x1="367.528" x2="359.218" y1="413.278" y2="404.968" gradientTransform="matrix(1.0667 0 0 -1.0667 3.2666 557.5336)" gradientUnits="userSpaceOnUse"><stop offset="0" style="stop-color:#fff"/><stop offset="1" style="stop-color:#e8efee"/></linearGradient><polygon style="fill:url(#SVGID_9_)" points="448.228 164.409 347.592 63.773 334.621 76.744 435.257 177.379"/><linearGradient id="SVGID_10_" x1="339.268" x2="360.748" y1="385.018" y2="406.498" gradientTransform="matrix(1.0667 0 0 -1.0667 3.2666 557.5336)" gradientUnits="userSpaceOnUse"><stop offset="0" style="stop-color:#ffc200;stop-opacity:0"/><stop offset=".203" style="stop-color:#fb0;stop-opacity:.203"/><stop offset=".499" style="stop-color:#ffa700;stop-opacity:.499"/><stop offset=".852" style="stop-color:#f80;stop-opacity:.852"/><stop offset="1" style="stop-color:#ff7800"/></linearGradient><polygon style="fill:url(#SVGID_10_)" points="418.631 194.004 317.995 93.369 334.621 76.744 435.257 177.379"/><linearGradient id="SVGID_11_" x1="381.296" x2="370.356" y1="427.05" y2="416.1" gradientTransform="matrix(1.0667 0 0 -1.0667 3.2666 557.5336)" gradientUnits="userSpaceOnUse"><stop offset="0" style="stop-color:#fff"/><stop offset="1" style="stop-color:#e8efee"/></linearGradient><polygon style="fill:url(#SVGID_11_)" points="461.199 151.437 360.563 50.801 347.592 63.773 448.228 164.409"/><linearGradient id="SVGID_12_" x1="19.923" x2="-.116" y1="65.672" y2="45.642" gradientTransform="matrix(1.0667 0 0 -1.0667 3.2666 557.5336)" gradientUnits="userSpaceOnUse"><stop offset="0" style="stop-color:#363f3e"/><stop offset="1" style="stop-color:#303033"/></linearGradient><path style="fill:url(#SVGID_12_)" d="M10.981,471.179L0.339,503.464c-1.669,5.062,3.137,9.869,8.199,8.199l32.285-10.642	L10.981,471.179z"/><linearGradient id="SVGID_13_" x1="403.984" x2="428.654" y1="393.884" y2="369.204" gradientTransform="matrix(1.0667 0 0 -1.0667 3.2666 557.5336)" gradientUnits="userSpaceOnUse"><stop offset="0" style="stop-color:#c2cece;stop-opacity:0"/><stop offset=".179" style="stop-color:#afbcbc;stop-opacity:.179"/><stop offset="1" style="stop-color:#5b6a6a"/></linearGradient><polygon style="fill:url(#SVGID_13_)" points="474.17 138.466 440.808 105.104 401.895 144.017 435.257 177.379"/><linearGradient id="SVGID_14_" x1="346.558" x2="371.228" y1="451.308" y2="426.638" gradientTransform="matrix(1.0667 0 0 -1.0667 3.2666 557.5336)" gradientUnits="userSpaceOnUse"><stop offset="0" style="stop-color:#c2cece;stop-opacity:0"/><stop offset=".55" style="stop-color:#c2cece"/><stop offset="1" style="stop-color:#c2cece;stop-opacity:0"/></linearGradient><polygon style="fill:url(#SVGID_14_)" points="423.15 87.447 389.788 54.084 350.875 92.997 384.237 126.36"/></svg>